<?xml version="1.0" encoding="utf-8"?>
<svg xmlns="http://www.w3.org/2000/svg" xmlns:xlink="http://www.w3.org/1999/xlink" width="123" height="36" viewBox="0 0 123 36">
    <defs>
        <path id="a" d="M.017.21h23.756V24.9H.017z"/>
    </defs>
    <g fill="none" fill-rule="evenodd">
        <path fill="#0A0B09" d="M89.362 11.648v15.14c0 .36-.29.653-.649.653h-3.979a.651.651 0 0 1-.649-.654v-15.14c0-.36.29-.652.65-.652h3.978c.359 0 .65.292.65.653M99.32 15.272v11.516a.65.65 0 0 1-.648.653h-3.981a.65.65 0 0 1-.648-.653V15.272h-2.34a.675.675 0 0 1-.672-.677v-2.923c0-.374.301-.677.673-.677h2.339v-4.66c0-.36.289-.65.645-.65h3.987c.357 0 .645.29.645.65v4.66h2.573c.38 0 .689.31.689.693v2.89a.69.69 0 0 1-.689.694H99.32"/>
        <g fill="#0A0B09">
            <path d="M80.749 11.029c-1.944 0-3.73.672-5.146 1.797V11.71a.68.68 0 0 0-.677-.681h-3.923a.679.679 0 0 0-.677.681v15.181a.67.67 0 0 0 .668.673h3.941a.67.67 0 0 0 .668-.673v-9.008a7.319 7.319 0 0 1 5.28-2.546 7.334 7.334 0 0 1 1.456.092v-4.245a8.312 8.312 0 0 0-1.59-.155M117.199 11.506l-3.234 7.321-4-7.545a.772.772 0 0 0-.703-.411l-4.167.115a.778.778 0 0 0-.661 1.144l6.813 12.852-4.36 9.872a.752.752 0 0 0 .683 1.057h4.188a.747.747 0 0 0 .684-.448l10.277-23.387a.744.744 0 0 0-.683-1.046l-4.167.034a.74.74 0 0 0-.67.442"/>
        </g>
        <path fill="#0A0B09" d="M40.885 23.274c-2.771.529-5.155-1.87-4.63-4.658.294-1.558 1.542-2.813 3.09-3.11 2.77-.528 5.155 1.871 4.63 4.66-.294 1.557-1.542 2.813-3.09 3.108zm1.086-12.199a8.264 8.264 0 0 0-6.165 1.792V11.86a.836.836 0 0 0-.833-.839h-3.652a.794.794 0 0 0-.792.797v23.334c0 .468.378.848.844.848h3.633c.442 0 .8-.36.8-.805v-9.28a8.25 8.25 0 0 0 5.209 1.845c4.904 0 8.817-4.27 8.266-9.318-.42-3.836-3.499-6.939-7.31-7.367z"/>
        <g fill="#0A0B09">
            <path d="M60.093 23.274c-2.77.529-5.155-1.87-4.63-4.658.294-1.558 1.542-2.813 3.09-3.11 2.77-.528 5.155 1.871 4.63 4.66-.294 1.557-1.542 2.813-3.09 3.108zm3.324-11.46v1.004a8.262 8.262 0 0 0-6.135-1.74c-3.798.443-6.86 3.54-7.277 7.365-.552 5.046 3.361 9.317 8.266 9.317 1.943 0 3.73-.672 5.146-1.797v.905c0 .38.306.688.684.688h3.909a.686.686 0 0 0 .684-.688V11.815a.792.792 0 0 0-.79-.794h-3.698a.792.792 0 0 0-.79.794zM89.473 2.837a2.758 2.758 0 0 1-2.75 2.766 2.758 2.758 0 0 1-2.749-2.766 2.758 2.758 0 0 1 2.75-2.766 2.758 2.758 0 0 1 2.749 2.766"/>
        </g>
        <path fill="#0A0B09" d="M5.478 17.885l17.265.463c.71.02 1.177.755.894 1.412l-1.142 2.656c-.16.37-.525.61-.927.609l-17.426-.087a1.01 1.01 0 0 1-.916-1.412l1.304-3.032c.163-.379.538-.62.948-.609"/>
        <g transform="translate(0 5.262)">
            <mask id="b" fill="#fff">
                <use xlink:href="#a"/>
            </mask>
            <path fill="#2EB5B9" d="M20.996 17.479L8.862 4.59a.915.915 0 0 1-.174-.989L9.912.758A.902.902 0 0 1 11.4.495l12.125 12.909a.914.914 0 0 1 .173.987l-1.214 2.823a.902.902 0 0 1-1.488.265" mask="url(#b)"/>
            <path fill="#0A0B09" d="M2.315 19.759l17.319.464c.729.02 1.207.774.917 1.448l-1.163 2.704a.867.867 0 0 1-.8.526L.863 24.813a.873.873 0 0 1-.792-1.22l1.424-3.308a.867.867 0 0 1 .819-.526" mask="url(#b)"/>
        </g>
        <path fill="#2EB5B9" d="M17.942 29.878L5.808 16.99a.916.916 0 0 1-.174-.988l1.224-2.844a.902.902 0 0 1 1.488-.264l12.126 12.91a.915.915 0 0 1 .172.987l-1.214 2.822a.902.902 0 0 1-1.488.265"/>
    </g>
</svg>
